<svg width="40" height="40" viewBox="0 0 40 40" fill="none" xmlns="http://www.w3.org/2000/svg">
<path d="M34.1866 6.24719C34.1866 6.24719 37.2393 5.03519 36.9849 7.97862C36.9002 9.19064 36.137 13.4326 35.5434 18.021L33.5082 31.6127C33.5082 31.6127 33.3387 33.6038 31.8123 33.9501C30.2859 34.2964 27.9964 32.7381 27.5723 32.3918C27.2331 32.1321 21.2125 28.2364 19.0925 26.3318C18.4989 25.8124 17.8205 24.7735 19.1773 23.5615L28.0811 14.9044C29.0987 13.8655 30.1163 11.4415 25.8763 14.385L14.0046 22.6093C14.0046 22.6093 12.6478 23.4749 10.1039 22.6958L4.59197 20.9644C4.59197 20.9644 2.55681 19.6658 6.03355 18.3672C14.5134 14.2983 24.9436 10.1429 34.1866 6.24719Z" fill="#090909"/>
</svg>
