<svg width="40" height="40" viewBox="0 0 40 40" fill="none" xmlns="http://www.w3.org/2000/svg">
<path d="M38.261 26.9391C37.3901 25.8991 36.4004 24.9671 35.4432 24.0657C35.1029 23.7452 34.751 23.4137 34.4118 23.0842C33.438 22.137 33.4025 21.7812 34.1736 20.7054C34.707 19.9638 35.2726 19.2212 35.8196 18.5031C36.3157 17.8515 36.8288 17.1777 37.3205 16.5018L37.4214 16.3628C38.3613 15.0692 39.3332 13.7316 39.8505 12.118C39.9848 11.6923 40.1259 11.0658 39.8034 10.542C39.4811 10.0186 38.856 9.85888 38.4137 9.78429C38.1949 9.74738 37.9777 9.74235 37.7761 9.74235L31.6213 9.73796L31.5704 9.73753C30.6398 9.73753 30.0127 10.1738 29.6533 11.0713C29.3103 11.9289 28.9334 12.8421 28.5033 13.7104C27.6475 15.4394 26.5606 17.4308 24.9878 19.0918L24.9213 19.1624C24.7355 19.361 24.5251 19.5858 24.3713 19.5858C24.3478 19.5858 24.3221 19.5813 24.293 19.5722C23.9672 19.446 23.7486 18.6614 23.7585 18.2965C23.7586 18.2915 23.7587 18.2864 23.7587 18.2814L23.7544 11.2051C23.7544 11.1806 23.7527 11.1563 23.7495 11.132C23.5929 9.98165 23.2461 9.26559 21.9357 9.01029C21.9009 9.00339 21.8653 9 21.8298 9H15.4301C14.3874 9 13.8129 9.42155 13.2729 10.0525C13.1271 10.2212 12.8236 10.5723 12.974 10.9982C13.1266 11.4305 13.622 11.523 13.7833 11.553C14.584 11.7046 15.0353 12.1917 15.1631 13.0429C15.3863 14.521 15.4137 16.0987 15.2494 18.008C15.2036 18.5387 15.113 18.9485 14.9637 19.2986C14.929 19.3803 14.806 19.647 14.6806 19.6471C14.6408 19.6471 14.5255 19.6316 14.3155 19.4877C13.8191 19.1494 13.4559 18.6666 13.0324 18.0702C11.5918 16.0451 10.3828 13.8141 9.33574 11.2483C8.94741 10.3038 8.22217 9.77498 7.29269 9.75943C6.27139 9.74399 5.34544 9.73654 4.46231 9.73654C3.49738 9.73654 2.60281 9.74541 1.72926 9.76348C0.98145 9.77663 0.464192 9.99961 0.192021 10.4268C-0.0805904 10.8542 -0.062864 11.4157 0.24476 12.0954C2.70729 17.5412 4.94004 21.5008 7.48449 24.9346C9.26737 27.3373 11.0556 29.0004 13.1117 30.168C15.2778 31.4007 17.7053 32 20.5327 32C20.8532 32 21.1847 31.9922 21.5188 31.9767C23.1617 31.897 23.7713 31.3055 23.8483 29.7143C23.885 28.9011 23.9744 28.0482 24.3763 27.3209C24.6299 26.8626 24.8664 26.8626 24.9442 26.8626C25.0939 26.8626 25.2795 26.9312 25.4789 27.0596C25.8366 27.2918 26.1432 27.6029 26.3945 27.8746C26.6312 28.1327 26.8651 28.3935 27.0993 28.6544C27.6047 29.2175 28.1272 29.7996 28.6731 30.3517C29.8679 31.5609 31.1842 32.0928 32.696 31.9773H38.3389C38.3509 31.9773 38.363 31.9769 38.375 31.9761C38.9373 31.9392 39.4243 31.6289 39.7111 31.1249C40.0664 30.5005 40.0593 29.704 39.692 28.9936C39.2752 28.1904 38.7346 27.5041 38.261 26.9391Z" fill="#090909"/>
</svg>
